<svg width="106" height="106" viewBox="0 0 106 106" fill="none" xmlns="http://www.w3.org/2000/svg">
<g clip-path="url(#clip0_3039_190)">
<path fill-rule="evenodd" clip-rule="evenodd" d="M87.6291 32.429C87.6291 25.8533 81.9967 20.5226 75.0487 20.5226L61.9918 20.5226C57.3434 20.5226 53.5752 16.7544 53.5752 12.106V12.106C53.5752 7.45768 57.3435 3.68945 61.9918 3.68945L75.0487 3.68945C91.8196 3.68945 105.415 16.5566 105.415 32.429C105.415 48.3014 91.8196 61.1685 75.0487 61.1685L30.0412 61.1685C23.2729 61.1685 17.7861 66.3613 17.7861 72.7669C17.7861 79.1726 23.2729 84.3654 30.0412 84.3654L45.1587 84.3654C49.807 84.3654 53.5752 88.1336 53.5752 92.7819V92.7819C53.5752 97.4303 49.807 101.198 45.1587 101.198L30.0412 101.198C13.4499 101.198 1.86418e-05 88.4692 1.93282e-05 72.7669C2.00146e-05 57.0646 13.4499 44.3353 30.0412 44.3353L75.0487 44.3353C81.9967 44.3353 87.6291 39.0047 87.6291 32.429Z" fill="#1E243B"/>
<circle cx="74.367" cy="92.8559" r="12.5592" transform="rotate(90 74.367 92.8559)" fill="#4261FF"/>
<circle cx="32.7776" cy="12.5592" r="12.5592" transform="rotate(90 32.7776 12.5592)" fill="#4261FF"/>
</g>
<defs>
<clipPath id="clip0_3039_190">
<rect width="105.415" height="105.415" fill="white"/>
</clipPath>
</defs>
</svg>
