<svg width="117" height="35" viewBox="0 0 117 35" fill="none" xmlns="http://www.w3.org/2000/svg">
<path d="M11.2989 11.0836C9.75875 11.0836 8.42572 11.4369 7.27384 12.1384C6.3161 12.7234 5.51356 13.4559 4.84055 14.3373V1.01172H0V33.4262H4.84055V30.7212C5.51356 31.5935 6.3161 32.3248 7.27384 32.9163C8.42572 33.6242 9.75875 33.9814 11.2989 33.9814C12.8779 33.9814 14.3532 33.6837 15.738 33.0897C17.1229 32.4969 18.3396 31.6751 19.388 30.6254C20.4363 29.5745 21.2646 28.3592 21.8599 26.9769C22.4553 25.5934 22.753 24.1115 22.753 22.5325C22.753 20.4177 22.2353 18.4944 21.1999 16.764C20.1775 15.0336 18.7926 13.6552 17.0712 12.6276C15.3369 11.5987 13.4085 11.0836 11.2989 11.0836ZM11.26 29.2665C10.0563 29.2665 9.00794 28.9688 8.10196 28.3709C7.19598 27.7716 6.48435 26.9614 5.97959 25.9415C5.46189 24.9165 5.20304 23.7802 5.20304 22.5325C5.20304 21.2848 5.46189 20.1485 5.97959 19.1235C6.48435 18.1036 7.19598 17.2895 8.10196 16.6825C9.00794 16.0781 10.0563 15.7778 11.26 15.7778C12.4378 15.7778 13.5251 16.0768 14.5216 16.6773C15.5182 17.2778 16.3075 18.0906 16.9029 19.1131C17.4982 20.1355 17.7959 21.2758 17.7959 22.5325C17.7959 23.762 17.4984 24.888 16.916 25.9105C16.3336 26.9329 15.544 27.7483 14.5474 28.3566C13.5509 28.9636 12.4507 29.2665 11.26 29.2665Z" fill="#3B3857"/>
<path d="M35.2682 33.9838C36.7695 33.9838 38.1804 33.6861 39.5005 33.0908C40.8077 32.4967 41.9595 31.6736 42.9561 30.6226C43.9397 29.5743 44.7292 28.3616 45.2857 26.9871C45.8552 25.6113 46.1399 24.1346 46.1399 22.5569C46.1399 20.4434 45.648 18.5175 44.6644 16.7806C43.6937 15.0438 42.3867 13.6602 40.743 12.6326C39.0863 11.6023 37.2613 11.0859 35.2682 11.0859C33.7669 11.0859 32.3562 11.3849 31.0361 11.979C29.716 12.573 28.564 13.3962 27.5674 14.4471C26.5838 15.4967 25.8072 16.712 25.2377 18.0943C24.6683 19.4765 24.3965 20.9636 24.3965 22.5569C24.3965 24.6561 24.8755 26.5703 25.8591 28.3008C26.8298 30.0312 28.15 31.4095 29.7937 32.4372C31.4374 33.4674 33.2621 33.9838 35.2682 33.9838ZM35.2682 29.1407C34.181 29.1407 33.1845 28.8482 32.2656 28.2658C31.3467 27.6782 30.609 26.8874 30.0654 25.8934C29.5089 24.8995 29.237 23.7864 29.237 22.5569C29.237 21.3675 29.4958 20.2673 30.0265 19.2578C30.5571 18.2496 31.282 17.442 32.2009 16.835C33.1198 16.2306 34.1422 15.929 35.2682 15.929C36.3683 15.929 37.3779 16.228 38.2839 16.8246C39.2028 17.4252 39.9276 18.2302 40.4712 19.2384C41.0148 20.2479 41.2865 21.3532 41.2865 22.5569C41.2865 23.732 41.0277 24.8205 40.497 25.8223C39.9664 26.824 39.2417 27.6277 38.3357 28.2347C37.4297 28.8392 36.4071 29.1407 35.2682 29.1407Z" fill="url(#paint0_linear_6524_27233)"/>
<path d="M48.2363 11.6797V23.0238C48.2622 25.0182 48.6763 26.8457 49.4788 28.5075C50.2683 30.1771 51.4071 31.5089 52.8567 32.5042C54.3192 33.5007 56.0276 34.0003 57.9819 34.0003C59.3409 34.0003 60.5575 33.678 61.6447 33.0335C62.5507 32.4938 63.3532 31.7936 64.0262 30.9329V33.4244H68.8796V11.6797H64.0262V22.9358C64.0262 24.1135 63.806 25.1852 63.353 26.1481C62.913 27.1032 62.2788 27.8669 61.4764 28.4376C60.6869 29.0032 59.755 29.2853 58.7066 29.2853C57.6194 29.2853 56.6619 29.0032 55.8206 28.435C54.9793 27.863 54.3063 27.0981 53.8145 26.1416C53.3227 25.18 53.0766 24.1122 53.0766 22.9358V11.6797H48.2363Z" fill="#3B3857"/>
<path d="M78.8198 7.03985C78.8198 6.57004 78.9881 6.17011 79.3246 5.84008C79.6611 5.50875 80.0624 5.34309 80.5413 5.34309C80.7872 5.34309 81.0459 5.4052 81.2918 5.52557C81.5377 5.64334 81.7189 5.8129 81.8613 6.03681L81.9907 6.25423L85.4852 2.80248L85.3558 2.6588C84.6957 1.92367 83.9452 1.38138 83.1169 1.02805C82.2756 0.676012 81.4214 0.5 80.5413 0.5C79.3117 0.5 78.2117 0.795081 77.228 1.38138C76.2315 1.96897 75.4419 2.75717 74.8595 3.74727C74.2641 4.73866 73.9793 5.8362 73.9793 7.03985V11.6823H71.4297V16.5254H73.9793V33.427H78.8198V16.5254H84.8381V11.6823H78.8198V7.03985Z" fill="#3B3857"/>
<path d="M92.2828 11.6797H87.4395V33.4244H92.2828V11.6797Z" fill="#3B3857"/>
<path d="M117 33.2267V22.043C116.987 20.0473 116.573 18.225 115.757 16.5774C114.942 14.9234 113.816 13.5955 112.379 12.595C110.93 11.5907 109.221 11.0859 107.254 11.0859C105.895 11.0859 104.666 11.4056 103.591 12.0424C102.685 12.5769 101.883 13.2784 101.21 14.1481V11.6839H96.3564V33.4286H101.21V22.1298C101.21 20.952 101.43 19.8817 101.883 18.9187C102.323 17.9623 102.944 17.1987 103.76 16.6292C104.549 16.0623 105.481 15.7802 106.555 15.7802C107.617 15.7802 108.574 16.0636 109.415 16.6318C110.257 17.2026 110.93 17.9675 111.422 18.9239C111.913 19.8855 112.146 20.9546 112.146 22.1298V33.4286H117V33.2267Z" fill="#3B3857"/>
<path d="M89.8116 9.65463C91.3224 9.65463 92.5472 8.42989 92.5472 6.91911C92.5472 5.40833 91.3224 4.18359 89.8116 4.18359C88.3008 4.18359 87.0762 5.40833 87.0762 6.91911C87.0762 8.42989 88.3008 9.65463 89.8116 9.65463Z" fill="#3B3857"/>
<defs>
<linearGradient id="paint0_linear_6524_27233" x1="26.7201" y1="13.2322" x2="43.5077" y2="32.2286" gradientUnits="userSpaceOnUse">
<stop stop-color="#D01DFF"/>
<stop offset="1" stop-color="#286DFF"/>
</linearGradient>
</defs>
</svg>
