<svg width="497" height="106" viewBox="0 0 497 106" fill="none" xmlns="http://www.w3.org/2000/svg">
<g clip-path="url(#clip0_2951_866)">
<path fill-rule="evenodd" clip-rule="evenodd" d="M87.6291 32.429C87.6291 25.8533 81.9967 20.5227 75.0487 20.5227L61.9918 20.5227C57.3434 20.5227 53.5752 16.7544 53.5752 12.1061C53.5752 7.45774 57.3435 3.68951 61.9918 3.68951L75.0487 3.68951C91.8196 3.68951 105.415 16.5566 105.415 32.429C105.415 48.3014 91.8196 61.1685 75.0487 61.1685L30.0412 61.1685C23.2729 61.1685 17.7861 66.3613 17.7861 72.767C17.7861 79.1726 23.2729 84.3654 30.0412 84.3654L45.1587 84.3654C49.807 84.3654 53.5752 88.1336 53.5752 92.782C53.5752 97.4303 49.807 101.199 45.1587 101.199L30.0412 101.199C13.4499 101.199 1.91823e-05 88.4693 1.98687e-05 72.767C2.05551e-05 57.0646 13.4499 44.3354 30.0412 44.3354L75.0487 44.3354C81.9967 44.3354 87.6291 39.0047 87.6291 32.429Z" fill="#1E243B"/>
<circle cx="74.367" cy="92.856" r="12.5592" transform="rotate(90 74.367 92.856)" fill="#4261FF"/>
<circle cx="32.7776" cy="12.5592" r="12.5592" transform="rotate(90 32.7776 12.5592)" fill="#4261FF"/>
</g>
<path d="M181.325 34.2878C176.725 34.2878 172.744 35.3429 169.304 37.4379C166.443 39.185 164.047 41.3728 162.037 44.005V4.20831H147.581V101.014H162.037V92.9353C164.047 95.5404 166.443 97.7243 169.304 99.4907C172.744 101.605 176.725 102.672 181.325 102.672C186.04 102.672 190.446 101.783 194.582 100.009C198.718 98.2384 202.352 95.784 205.482 92.6492C208.613 89.5107 211.087 85.8811 212.865 81.7531C214.643 77.6211 215.532 73.1954 215.532 68.4798C215.532 62.164 213.986 56.4202 210.894 51.2524C207.84 46.0845 203.704 41.968 198.563 38.899C193.384 35.8261 187.625 34.2878 181.325 34.2878ZM181.208 88.5907C177.614 88.5907 174.483 87.7017 171.777 85.9159C169.071 84.1263 166.946 81.7067 165.438 78.6609C163.892 75.5996 163.119 72.2059 163.119 68.4798C163.119 64.7537 163.892 61.36 165.438 58.2987C166.946 55.2529 169.071 52.8217 171.777 51.0089C174.483 49.2038 177.614 48.307 181.208 48.307C184.726 48.307 187.973 49.1999 190.949 50.9934C193.925 52.7869 196.283 55.2142 198.061 58.2678C199.839 61.3213 200.728 64.7266 200.728 68.4798C200.728 72.1518 199.839 75.5145 198.1 78.5681C196.361 81.6216 194.002 84.0568 191.026 85.8734C188.05 87.6862 184.764 88.5907 181.208 88.5907Z" fill="#1E243B"/>
<path d="M252.911 102.673C257.395 102.673 261.608 101.784 265.551 100.006C269.455 98.2322 272.894 95.7739 275.871 92.6353C278.808 89.5044 281.166 85.8827 282.828 81.7778C284.529 77.669 285.379 73.2588 285.379 68.547C285.379 62.2351 283.91 56.4835 280.973 51.2964C278.074 46.1092 274.17 41.9772 269.261 38.9082C264.314 35.8315 258.863 34.2892 252.911 34.2892C248.427 34.2892 244.214 35.1821 240.272 36.9562C236.329 38.7304 232.889 41.1887 229.913 44.3273C226.975 47.462 224.656 51.0915 222.955 55.2196C221.254 59.3477 220.443 63.7889 220.443 68.547C220.443 74.8165 221.873 80.5332 224.811 85.701C227.71 90.8689 231.652 94.9854 236.561 98.0544C241.47 101.131 246.92 102.673 252.911 102.673ZM252.911 88.2096C249.664 88.2096 246.688 87.336 243.944 85.5967C241.199 83.8418 238.996 81.4801 237.373 78.5116C235.711 75.5431 234.899 72.219 234.899 68.547C234.899 64.9948 235.672 61.7094 237.257 58.6945C238.841 55.6834 241.006 53.2715 243.751 51.4587C246.495 49.6536 249.548 48.753 252.911 48.753C256.196 48.753 259.212 49.6459 261.917 51.4278C264.662 53.2213 266.826 55.6255 268.45 58.6365C270.073 61.6514 270.884 64.9523 270.884 68.547C270.884 72.0567 270.111 75.3073 268.527 78.299C266.942 81.2908 264.778 83.6911 262.072 85.5039C259.366 87.309 256.312 88.2096 252.911 88.2096Z" fill="#1E243B"/>
<path d="M291.638 36.0739V69.9528C291.715 75.9092 292.952 81.3669 295.349 86.3299C297.706 91.3161 301.108 95.2934 305.437 98.2658C309.804 101.242 314.906 102.734 320.743 102.734C324.802 102.734 328.435 101.772 331.682 99.8467C334.388 98.2349 336.784 96.1438 338.794 93.5734V101.014H353.289V36.0739H338.794V69.69C338.794 73.2074 338.137 76.4078 336.784 79.2835C335.47 82.1361 333.576 84.4166 331.179 86.1212C328.821 87.8103 326.038 88.6529 322.907 88.6529C319.661 88.6529 316.801 87.8103 314.288 86.1134C311.776 84.405 309.766 82.1206 308.297 79.2642C306.828 76.3923 306.094 73.2035 306.094 69.69V36.0739H291.638Z" fill="#1E243B"/>
<path d="M382.972 22.2091C382.972 20.8061 383.475 19.6117 384.48 18.626C385.485 17.6365 386.683 17.1418 388.113 17.1418C388.848 17.1418 389.62 17.3273 390.355 17.6868C391.089 18.0385 391.63 18.5449 392.056 19.2136L392.442 19.8629L402.878 9.55429L402.492 9.1252C400.521 6.92974 398.279 5.3102 395.805 4.25499C393.293 3.20364 390.742 2.67798 388.113 2.67798C384.441 2.67798 381.156 3.55923 378.218 5.3102C375.242 7.06502 372.884 9.41898 371.145 12.3759C369.367 15.3367 368.516 18.6145 368.516 22.2091V36.0738H360.902V50.5376H368.516V101.014H382.972V50.5376H400.946V36.0738H382.972V22.2091Z" fill="#1E243B"/>
<path d="M423.188 36.077H408.724V101.017H423.188V36.077Z" fill="#1E243B"/>
<path d="M497 100.412V67.0125C496.962 61.0523 495.725 55.61 493.29 50.6895C490.855 45.7497 487.492 41.7839 483.201 38.7961C478.872 35.7967 473.77 34.2892 467.895 34.2892C463.837 34.2892 460.164 35.244 456.956 37.1457C454.251 38.742 451.854 40.837 449.844 43.4344V36.075H435.349V101.015H449.844V67.2715C449.844 63.7541 450.502 60.5575 451.854 57.6818C453.169 54.8254 455.024 52.5448 457.459 50.8441C459.817 49.1511 462.6 48.3085 465.808 48.3085C468.977 48.3085 471.837 49.155 474.35 50.8519C476.862 52.5564 478.872 54.8408 480.341 57.6972C481.81 60.5691 482.505 63.7618 482.505 67.2715V101.015H497V100.412Z" fill="#1E243B"/>
<path d="M415.8 30.0184C420.312 30.0184 423.97 26.3608 423.97 21.8488C423.97 17.3369 420.312 13.6793 415.8 13.6793C411.289 13.6793 407.631 17.3369 407.631 21.8488C407.631 26.3608 411.289 30.0184 415.8 30.0184Z" fill="#1E243B"/>
<defs>
<clipPath id="clip0_2951_866">
<rect width="105.415" height="105.415" fill="white"/>
</clipPath>
</defs>
</svg>
